<svg xmlns="http://www.w3.org/2000/svg" width="512" height="512" viewBox="0 0 512 512">
  <defs>
    <linearGradient id="bg" x1="0%" y1="0%" x2="100%" y2="100%">
      <stop offset="0%" stop-color="#e07a0a"/>
      <stop offset="55%" stop-color="#d76f02"/>
      <stop offset="100%" stop-color="#c06000"/>
    </linearGradient>
    <linearGradient id="ink" x1="0%" y1="0%" x2="0%" y2="100%">
      <stop offset="0%" stop-color="#4a2604"/>
      <stop offset="100%" stop-color="#2b1501"/>
    </linearGradient>
  </defs>
  <rect x="0" y="0" width="512" height="512" rx="116" ry="116" fill="url(#bg)"/>
  <rect x="18" y="18" width="476" height="476" rx="104" ry="104" fill="none" stroke="#3d1e02" stroke-width="4" opacity="0.30"/>
  <g transform="translate(256 256)" fill="url(#ink)">
    <path d="M -112 -128 L -72 -128 C -32 -128 -10 -112 -4 -88 C -2 -76 -10 -64 -26 -56 C -36 -50 -50 -48 -62 -48 C -30 -44 -10 -28 -4 -4 C 2 20 -10 52 -42 72 C -76 92 -120 96 -152 100 L -152 -128 Z M -112 -90 L -112 -52 L -80 -52 C -66 -52 -58 -48 -56 -42 C -54 -36 -54 -28 -60 -24 C -66 -22 -74 -22 -82 -22 L -112 -22 Z M -112 -8 L -112 62 L -82 62 C -50 62 -34 50 -28 32 C -24 18 -28 4 -40 -4 C -48 -10 -60 -12 -74 -12 L -112 -12 Z"/>
    <path d="M -70 20 L -42 62 L -12 20 L 22 62 L 58 20 L 106 20 L 30 136 L 14 108 L 0 84 L -20 116 L -28 136 L -108 136 Z"/>
    <rect x="-60" y="70" width="36" height="14" rx="2"/>
    <rect x="18" y="70" width="60" height="14" rx="2"/>
    <rect x="-54" y="94" width="28" height="12" rx="2"/>
    <rect x="34" y="94" width="62" height="12" rx="2"/>
  </g>
</svg>
